<?xml version="1.0" encoding="UTF-8"?>
<svg xmlns="http://www.w3.org/2000/svg" xmlns:xlink="http://www.w3.org/1999/xlink" width="47pt" height="37pt" viewBox="0 0 47 37" version="1.1">
<g id="surface1">
<path style=" stroke:none;fill-rule:nonzero;fill:rgb(0%,0%,0%);fill-opacity:1;" d="M 12.296875 4.351562 C 12.296875 4.488281 12.617188 5.128906 13.023438 5.722656 C 13.433594 6.320312 13.617188 7.007812 13.480469 7.28125 C 13.34375 7.511719 13.117188 9.113281 13.023438 10.851562 L 12.84375 13.964844 L 9.0625 16.578125 C 6.96875 17.996094 4.875 19.140625 4.371094 19.09375 C 3.050781 18.957031 2.960938 20.058594 4.234375 20.652344 C 5.238281 21.109375 5.691406 20.925781 8.425781 19.003906 C 10.066406 17.8125 11.523438 16.941406 11.660156 17.035156 C 11.75 17.171875 10.882812 20.058594 9.699219 23.445312 C 7.832031 28.804688 7.605469 29.765625 8.152344 30.40625 C 8.925781 31.320312 9.699219 30.773438 10.882812 28.484375 L 11.703125 26.878906 L 12.023438 28.664062 C 12.433594 30.773438 13.160156 32.238281 13.570312 31.824219 C 13.753906 31.640625 13.890625 29.398438 13.890625 26.878906 C 13.890625 22.347656 13.9375 22.117188 15.847656 18.132812 C 16.894531 15.890625 17.671875 13.964844 17.578125 13.875 C 17.398438 13.691406 16.804688 14.515625 14.621094 18.085938 C 14.164062 18.867188 14.117188 18.683594 14.347656 16.941406 C 14.484375 15.796875 14.800781 14.835938 14.984375 14.746094 C 16.214844 14.332031 16.988281 13.324219 16.667969 12.59375 C 16.441406 11.953125 16.257812 11.859375 15.847656 12.273438 C 14.847656 13.28125 14.710938 12.820312 14.9375 9.480469 C 15.164062 5.769531 14.621094 4.121094 13.207031 4.121094 C 12.707031 4.121094 12.296875 4.210938 12.296875 4.351562 Z M 10.519531 25.324219 C 10.066406 25.734375 10.019531 25.6875 10.292969 25.046875 C 10.429688 24.589844 10.703125 24.363281 10.839844 24.5 C 10.976562 24.636719 10.839844 25.003906 10.519531 25.324219 Z M 10.519531 25.324219 "/>
<path style=" stroke:none;fill-rule:nonzero;fill:rgb(0%,0%,0%);fill-opacity:1;" d="M 25.960938 5.496094 C 25.59375 5.722656 24.09375 6.410156 22.589844 7.050781 C 20.222656 8.105469 19.949219 8.335938 20.265625 9.25 C 20.996094 11.355469 20.996094 16.804688 20.3125 22.164062 C 19.171875 31.046875 19.035156 34.527344 19.8125 35.535156 C 20.722656 36.769531 21.40625 36.222656 26.1875 30.496094 L 30.285156 25.550781 L 32.746094 25.828125 C 34.066406 26.011719 36.707031 26.742188 38.621094 27.476562 C 42.035156 28.804688 43.082031 28.757812 42.582031 27.382812 C 41.945312 25.734375 34.613281 23.765625 28.691406 23.675781 L 25.277344 23.628906 L 29.148438 19.828125 C 32.289062 16.761719 32.882812 15.9375 32.335938 15.570312 C 31.378906 14.929688 31.289062 14.972656 30.46875 16.394531 C 29.464844 18.179688 22.179688 24.542969 21.953125 23.859375 C 21.496094 22.484375 22.453125 20.972656 25.003906 19.277344 C 28.144531 17.125 29.011719 15.25 29.832031 8.882812 C 30.105469 6.730469 30.011719 6.457031 29.101562 5.769531 C 27.917969 4.945312 27.007812 4.898438 25.960938 5.496094 Z M 27.597656 9.707031 C 27.28125 13.28125 26.1875 16.257812 24.636719 17.585938 C 23.410156 18.683594 23.453125 18.546875 24.867188 15.339844 C 25.867188 13.003906 25.914062 12.59375 25.367188 11.996094 C 24.820312 11.492188 24.5 11.449219 23.726562 11.859375 C 22.679688 12.457031 22.542969 12.316406 22.179688 10.027344 C 22.042969 8.976562 22.226562 8.746094 23.636719 8.289062 C 24.546875 8.011719 25.6875 7.511719 26.1875 7.144531 C 27.734375 5.953125 27.917969 6.273438 27.597656 9.707031 Z M 23.589844 14.882812 C 23.042969 16.117188 22.316406 16.394531 22.316406 15.339844 C 22.316406 14.835938 23.363281 13.828125 24 13.738281 C 24.09375 13.738281 23.863281 14.242188 23.589844 14.882812 Z M 28.691406 25.046875 C 28.691406 25.277344 26.960938 27.246094 24.820312 29.535156 L 20.996094 33.65625 L 20.949219 30.359375 C 20.949219 26.652344 20.949219 26.695312 24.59375 25.550781 C 27.371094 24.726562 28.691406 24.542969 28.691406 25.046875 Z M 28.691406 25.046875 "/>
</g>
</svg>
